<svg xmlns="http://www.w3.org/2000/svg" version="1.1" xmlns:xlink="http://www.w3.org/1999/xlink" width="1000" height="1000"><g clip-path="url(#SvgjsClipPath1214)"><rect width="1000" height="1000" fill="#ffffff"></rect><g transform="matrix(0.2197265625,0,0,0.2197265625,50,50)"><svg xmlns="http://www.w3.org/2000/svg" version="1.1" xmlns:xlink="http://www.w3.org/1999/xlink" width="4096" height="4096"><svg xmlns="http://www.w3.org/2000/svg" viewBox="0 0 4096 4096"><path d="M2139.2 0c-112.1 1.6-213.3 49.2-256.5 69.7-102.6 48.8-162.2 89.2-240.2 143.8-184.8-43-411.1-108.7-587.3-2.2-117.8 73.9-169.7 181.4-173.6 278.8a273 273 0 0 0 60.9 178.7c78 100.1 201.8 159.2 253.5 180.7 59.7 24.9 117 40.7 117 40.8 5.2 4.7-44.7 74-50.6 153.2-2.3 29 1.8 58 9.7 85.9 26.8 97.6 24.2 76.8 32 108.5 6.9 32.5 3.2 65.5.6 98.3-15.7 26.3-34.2 51-45.5 79.7a96 96 0 0 0-2.9 60.4l1.7 6.1-2.7 14.4a638.8 638.8 0 0 0-8.2 58c-5.6 69 8 129.7 36.3 228.4a4698.8 4698.8 0 0 1 44.4 167.3l7.4 30.1c-8.6 51-21 109.7-21 117.5 0 1.6-20.8.2-39.4 6.3-35 17.5-57.2 46-51.7 88.1 7.6 45 11.5 41.8 14.7 56.8-25-5.5-4.6 1-271.9-26.1-60-6-79.5-6.2-153.3 29.5-98.8 47.6-197.5 96.1-301.6 131-51 17.5-97.6 35.5-121 89a270.3 270.3 0 0 0-16.3 38c-2 15.7-70.2 25.8-97.6 44.5a160 160 0 0 0-67.6 85.7c-12.3 42-13.5 85.3-14.9 128.7-28.7 40.5-44.6 49-50.5 130.8-8.3 122.5-26.5 144.4-52.4 373-14.5 136.2-6.5 275-90.7 392.4v53.6c89.2-150.3 93.6-193.6 101.5-289.4 30.2-376.7 45.2-299.7 67.6-533.6 2.8-30.1 5.4-60.7 23.2-86.4 29.5-38.9 60.1-48 106.3-59.8 34-11.2 13.8-15.7 13.8-15.7-4.5 0-15.4 2.6-34.8 5.5-35 5-56.7 20.1-61.9 20 10.2-68.1 1-129.8 63.5-176.4 38.7-26.5 84.6-37.2 127.3-55.2 91.3-33 201.6-102.2 300.5-142.6 16.8-7 33.4-14.5 50-22l.5.9c1 1.5-1.8 3-11.8 35.1v30.3c1.2 4 3.6 18.8 8.4 16.8l1.2-1.3-.3-16.4c-1-44.4 19.7-68.4 20.5-69.3 4-4.7 8-6.8 21-11.2 23.3-7.9 57-11 125.9 18.8 132.9 57.6 181.9 71.2 239.6 100.5 65.2 33 114.7 89 116.5 91.1 12.9 13.4 25.8 26.6 39 39.6l14.3 13.9a40.4 40.4 0 0 1-15.2-5.8c-21.1-10.4-36-14.6-53-3.4-14.4 14.2-26.6 31.7-25.8 53 .3 22.5 7.4 44 22 61.3 17 22.7 32.6 35 51 40.5l6 1.8c8.8 0 17.7 1.2 25.9-2.7a84.2 84.2 0 0 0 24.2-14.5c9-7.4 15.8-20 19.8-22.2-4.6 14.2-10.7 31-21.6 42a101.7 101.7 0 0 1-42.6 24.2c-21.9 5-48 3.5-64.5-4-28.2-9.5-50.1-20-85.1-40.9-59-35.2-66.2-52.3-100.4-76-9-6.2-18.2-7.1-28.8-8.6-67.7-16.3-135.6-44.4-198.7-73-14.3-6.9-27.8-13.1-30-14-12-3.2-13 3.9-10.8 9.8l20.8 13c.2 1.1-48.7 28.7-70.7 44-98.6 11-194.6 34-293 44.2-12.4 5.3-14.4 21.2 51.9 15.6 59-3.8 152.3-27.2 236.2-35.3 32.3-3.1 68-3.8 89.8 4.4a539 539 0 0 1 103.7 74.5c35 29.4 70.8 58 107.3 85.6 8.3 6.4 44 42.4 51.6 52 13.2 16.8 23 30.3 29.2 45 2 7.9 39.6 69.3 31.1 73.4-11.3.1-34.6 27-38.3 38-20 43-4 79.5 5.8 98 11 21.1 28 26 28 28.4-3.9 5.1-37 6.2-51.8-.1-31-10.7-51-31.4-55.7-37a1152 1152 0 0 1-62-71.6c-28.3-35.3-29.7-36.5-64.3-55.2-44.3-24.1-90.5-47-129-80a435.4 435.4 0 0 0-31.5-25.3c-12-3-1.7 14.6 1.1 19.6-6.2 2.1-32 8-37.1 9-61.3 10.5-123.8 7-185.7 9l-15.2 3.4c-19 19.8 25.6 15.4 34.6 19l60.5 1-.3 24.4a2158 2158 0 0 1-163-25c-14-2.7-20-3.5-33.8-4.6-8 1-8.3 11 7.7 16.3a759.8 759.8 0 0 0 118 26.3c88.5 13.8 152.1 19.8 182.4 26 35.2 7 38.6 9 103.3 57 32.5 24.2 96.9 59 122.4 78.6 15.1 11.6 25.7 22.5 50.7 52 5.2 6.1 33.1 29.2 15.6 28.3-19.6 3-23.8 24.6-28.5 41.5-3.9 14.3-7 30.3-1.8 44.4a72.2 72.2 0 0 0 30.1 35.5l7 4c-3.1 3.2-8.5 2.8-12.6 4.2-23 4.8-46.9 1.8-69.5-4.5l-11-3.8c-20.5-7-31.5-13.1-68.4-38-8.4-5.8-16.5-12.3-26-16-52.4-20.7-108.9-32.4-157.5-63-23.2-6.6-47.8 2.7-71.3 3.2-32 2.8-81.3 0-123.7-10.8-51.2-13-58.2-27-72.4-22.7-2.4 6.3-2.5 10.6 4.1 14.7 5.5 4.2 31 16.9 44.2 22 32 12.3 50.2 12.8 53.5 16-59.8 19.3-107.6 14.3-167-3.2 0 0-7.4-1.8-8.6 4.3 3.4 3.8 7.6 6.4 12.2 8.7 27.5 13.9 89.3 26.8 151 12.4 1 1-24 21.3-36.3 29.7-59.4 40-92.6 41.9-108.1 52 0 0-4 9.2 11.2 8.8 7.5 0 14.3-.7 21.4-3.4a327 327 0 0 0 64-26.8c30.8-20.3 59.8-43 83.8-71.2l8-8.8c27.9 2 35 2 49 2v9c.1 15.5 5.1 39.9 15.8 77.4 14 49.6 25.8 99.8 28.1 151.6 0 0-.3 28.6 11 13.4a105 105 0 0 0 3-38.7c-2.1-43-12-86-43.2-188.6a203.4 203.4 0 0 1-6.8-24.4c20.2.5 49.1-10 67-5.8 49.7 20.2 95.8 46.2 149.6 60.2l11 4.3v1.4c0 4.5-7.3 19-25.2 100a6794 6794 0 0 1-12.8 56.7l-5 4.8c-28.7 28-92.8 67.5-128.6 106.3 0-9.2 3.2-8.3 4.8-22.9-4.5-5-9 2.7-9 2.7a427 427 0 0 0-5.6 14.4 635.2 635.2 0 0 1-30.5 73.8 371 371 0 0 1-55.2 76.9c-41 41-96.8 72.9-145.9 83.2-41.1 12.4-98.8-3.8-108.5-3.9h-3.9c-3.1 3.1-2.6 6.6.5 9.7a69 69 0 0 0 26.9 11.3c66.3 16 120 5.3 179-30.2 18.6-11.3 44.1-31.8 44.6-31.3a61 61 0 0 1-4 10.3 1663.7 1663.7 0 0 0-63.3 178.1c-22 75.5-34 120.4-34 132.8h27.5c29-123.4 60-224.8 98-311.8 10-23 18.8-46.5 33.1-67.2a394.6 394.6 0 0 0 37-65.3c8.1-19 21-36.7 42.9-58.7 27.4-26.6 59-49.3 89.5-72 1.5 1.3-17 81.6-32.2 201.7-.5 22 20.8 43.8 35.1 60 26.8 23 52 15.8 52.5-22.5a1788 1788 0 0 1 13.5-103.7c12-83.6 19-123 33.4-189 3.3-15 6-27.8 6-28.2 0-.4 2.5-3.9 5.7-7.6a419 419 0 0 0 31.4-44.3l8.1-9.8c.6 3.4 0 5.9-.3 9.2-8.4 95.3-5 183.6 8 276.2 7.6 49.8 22.5 131 29.8 162a2584.5 2584.5 0 0 1 38.6 200.8c7 52.2 1.4 6.2 9.6 70.2h45.4c-4.7-44.8-2.6-130.6-2.4-136 3-118.6 16-244.7 39.3-384.5 6.7-40.6 17.9-81.3 15.1-122.5l-5.8-.7-1.7 3.3c-3.9 7.5-22 86-33.3 144.2-24 123-39.4 274-39.6 387.1v22.2c-3.2-5.6-.9-5-11.5-61.6a1796.6 1796.6 0 0 0-29-132.3 1896.1 1896.1 0 0 1-39.3-206.2c-9.3-72.7-12-114-12-182.7v-43l.9-.5c.4-.3 7.4.4 15.4 1.6 16 2.1 32.7 3.9 48.8.4 16.4-3.2 32-9 46.7-17.3 6.8-6.4 14.5-12.2 19-20.7a77.5 77.5 0 0 0 0-81.6c-14.7-25.4-36-46-53.2-69.7l14.1-41.8c7 1.8 32.3 31.3 87.6 34.8 65.8 4.4 114.2-66.4 95.6-112.5-6.8-22.2-70-139.6-65.8-146.6.3-.4 1.4-.8 2.4-.8 83-26.7 272.1-172.3 285.9-158.5.3.3 4 8.4 8 18a563 563 0 0 1 37.6 118.4c18.3 99.9 68.7 27.7 76 14.9 21.8-35.2 20.2-53.4 23-56.4 2-2 18.9 22.6 59.6 43 29.5 14.7 58 22.1 108.3 28.2 20.1 2.4 40.2 3.2 60.5 3.5 0 1-16.2 23-9.8 148.2 7.2 68.5 15.9 127.2 46 205.3 8.9 22.9 58.5 143 149 205.9 237.2 165 509.4 53.6 683-56 218-137.6 339-292.2 418.3-418.8 115.2-183.8 190.7-405 152.9-551.5-1-3.5-2.3-7-2.1-10.7 34.2 0 54.4 12.8 77 28 26 17.5 36.5 23.8 62.7 26.6 100.8 16.8 63 21 144.3 36 53.4 10 80.6 16 120.4 29 83 26.7 125.6 62.8 247.8 109.9 134.2 52.2 92.7 80.6 182.6 119.7v-28.7c-18-8.7-34-19.3-47-33.7-63.6-63.5-143.5-89.1-225.2-125-87.7-43.3-167-79.9-265.1-94.4-72-13.2-78.7-22.2-115.8-31.8-31.7-8.2-64.5-5.9-91.2-28.9-26-17.2-54-32-86-33.1-53-5.9-83-45.9-121.7-78.5-20.5-16.3-49.6-32.7-77.2-25.3-2.9-3.2-11.3-31.7-17.8-59.2-47.5-199.2-32.6-391.6-23.9-465.9a205.4 205.4 0 0 0 44.6-37c88.6-89.5 194-309.8 176.9-467.7a367 367 0 0 0-19.6-80.8c9.5-89.9 16-162.4 8.8-241.8-7.5-118-22.1-268-98.6-383.6-92.7-148.7-144-155.4-283-348.5-34.8-42-65.9-68.5-107.2-91.6a542 542 0 0 0-116.8-50c-26.2-8.2-329-92.7-442.4-103.2a380.7 380.7 0 0 0-48.6-2.4zm5.5 24.6c109 2.2 213.2 40 318.9 62.8 69.6 17.4 140.1 32 207.1 58.3.4.1 40.7 17.1 75.3 37.6 1.3 9.5 1.8 19 1.6 28.6-.9 107.2-114.6 358.7-147.5 409.9-9.2-2.1-113.5-89.3-224-151.3-222.7-122.2-455.4-192.3-702.3-249.5 3.3-8.6 185.5-124.7 314.2-168.8a529.4 529.4 0 0 1 156.7-27.6zM1283 177.2c93.3-2.6 244.7 32.5 457.8 86.4 86.6 22 193.7 51 234.8 63.5C2099 365 2259.3 425.4 2406 516.8a2552.5 2552.5 0 0 1 175 121.7c42.8 32.9 86.5 65.7 123.2 105.3-154.7.2-297.9-4.4-445-47.2-103.8-27-206-82.2-251.6-108.8-38-22.2-148.2-99.7-221.7-156a2164.7 2164.7 0 0 0-164.4-117c-143.7-83.9-299.7-140.6-464.3-87-63.6 21.4-135.4 57.5-199.8 158-33.7 67.2-51.8 116.9-25.2 222h-2.4a251.8 251.8 0 0 1-20.5-139.4c7-49.1 29.2-127.7 98.5-190.1 79-67.5 174.1-98.3 275.3-101.1zm1481 19h1c30.1 0 158.4 185.5 216.1 241 75.7 83.7 152.4 172.2 188.4 281 21.3 65.6 32.4 131.2 40.5 240.5 9 120.3.1 216-3.2 226.5-24-24.2-50.6-46.2-85.4-52.2-53.8-10.7-104 12.3-106.2 11-.7-.6-9.3-22.4-26.5-53a1792.8 1792.8 0 0 0-200-293.8A1073 1073 0 0 0 2612.3 632c34.4-44 158.7-319.2 151.7-435.7zm-1503 37.5a378 378 0 0 1 56.3.3c124 8.1 252.5 63.3 386.9 167.4 0 .4-7.2 2-16 3.7a422.7 422.7 0 0 0-165.7 67.6c-28 19.8-57 48.2-75.9 74.5-66.6 98-87.5 209.8-122.3 320.6-103.7-15.7-301.4-125.5-338.2-196.6C947.6 607 928.4 515 962 435.5c48.4-119.9 169-193.2 299.1-201.8zM1734 424c99.6 74.7 166.4 124 199.6 145.5C2034 636.6 2102.9 670.9 2210 707c83.4 28.2 187.3 48.2 292.1 56.2 60.1 4.6 120.6 4.3 121.2 4.9 8.3 8.3-28 19 26.5 159.8 46.8 121 60.9 196.6-.3 442.2-31 124.8-50.7 175-110 248.3-58.9 72.9-148.7 129.2-185.3 150.4-157.2 91.2-165.4 96.6-203.4 134-28.5 28.1-46.9 63.7-59 101.7-17.4 53.6-28.6 115-36.4 120.5-35.4-67.1-30.2-133.7-96.5-250l-11.7-20.6-1.2-7c-4.4-25.1-30-115.6-83.8-218.7-32.3-62-60.6-105.7-93.2-144.2-16.6-19.9-32.1-41.1-52.7-57.2-6.6-1.7-9.6 2.4-9 8.3 13.6 13 27.5 26 35.6 43.3a118 118 0 0 1 10.5 53.7c-3 33.3-31.8 61.1-74 64-9.5 2.3-9.3 7.3-4 13.2 57.6-.1 77.3-34.3 81.7-43.6a89.1 89.1 0 0 0 10.8-45.5l-3-19 .9-.5c1-.7 17 20.4 31.4 41.7a1137 1137 0 0 1 102.6 199.7c18 48 26.9 74.4 25.1 79a316.4 316.4 0 0 0-104.2-97c-71.3-41-43.3-23.2-102.6-57-99.2-57.5-126.4-58.9-183.2-40-29.5 9.8-52.7 15.3-81.4 7-14-3.4-31.5-6.4-45.4-4.2-23.3 3.7-40.5 29.2-41.5 30.6-1.1-13.7 3-27.2 3.8-41l1.1-11.8c-9.4-7.3-9.1-.3-11.8 9.7-4.6 20.1-5.4 41-6.9 61.5-21.1 45.4-23 96.2-31.2 144.6l-.8-1.6c-21.3-55-32.1-119.6-45.8-177-3.2-19.3-7-65.7-3.5-91.8 2.2-28.3 2.9-34.5 3.9-34.5.5 0 18.2 25 42.9 44.8 15 12 32.3 22.6 54.6 33.4a223 223 0 0 0 53.3 19.6c20.4 4.6 43 6.6 37.5-9.1-3.3-7.6-12-9.6-19.3-11.1-20.4-4.8-73.7-19.7-112.3-52.2-23-19.4-45-51-51.5-73.7a79 79 0 0 1 7.5-59.7c13.7-25.1 19.4-33.2 67.1-96.6 39.2-52 67-90.9 83.8-123.7 21.8-42.2 34.8-75.6 41.8-107.4 2.4-11 5-33.6-2.2-49.2-6.7-18-12.4-37-11-56.6.2-29.5 3.1-65.5 13.3-98.2-15.6-13.8-24.5 45-25.2 69-.7 10.1-1.4 18.5-1.6 18.7-2 2-8-13.8-49.1-21-40-7-73.4 9.2-97.5 21.3 7-24.7 24.6-49.3 32.5-74.3 4.8-9.4 16.6-42.9 22.1-62.4 13.1-46.3 25.5-92.8 39.9-138.8 17-52.1 49.2-113.4 77.4-146.8 39.6-47 96.5-83 165.9-104.6a354 354 0 0 1 88.7-16.6zm993 341c142.8 151.1 260.8 371 267.7 389.2-16.2 8-29.7 15.2-46.1 26.7-39.4 8.9-49.9 15-82 36.3-28.4 28-49.5 53.1-64.1 91-14.3 33.4-23.3 67.6-35.3 133.8a1545.8 1545.8 0 0 0-19.6 206c-1.1 36.5 2.3 72.6 5 108.9 2.2 37 8.6 95.4 15.1 139.3 4 27 15.7 106.7 10.9 161-10.6 119.2-84.6 230.4-167.5 344.8-144.5 193.7-263 281-391.6 338.7-126 56.4-124.9 95.4-225 139.8-50 22.3-88.5 29.4-156 32.9a512.2 512.2 0 0 1-130.4-12c-42.4-14.3-77-31-106.2-65.2 0-22.1 1.7-44.5-1.3-66.4a607.2 607.2 0 0 0-40.9-145.1 71.6 71.6 0 0 1-5.2-14.6c2.6-2.6 47.5 32.2 132.3 44 48.2 6.8 77.6-.6 134.4 15.9 62.2 18.8 105.3 23 75-60.6 32-20.5 52-38.5 62.8-77 15.5-3.1 50-6.4 73.9-14.3 23.7-8 55.5-29.4 43.8-56.6-14.3-28.7-61.5-50.8-60.7-54.7a334 334 0 0 0 10.4-51.7c0-.8 4.3-36.7 0-69a567.6 567.6 0 0 0-26-108.6c-12.7-39-34.5-118.2-51.8-159.3a316.7 316.7 0 0 0-54.5-85.9 545 545 0 0 0-119.3-96.3c-51-30.6-102.1-57.4-131.5-68.8-24.2-9.4-35.4-12.6-50.5-14.1-25.1-2.5-53.5 12.8-96.6 5.4a285.4 285.4 0 0 0-36.9-1.6l-11.3-12.1c-17.2-18.5-29-27.2-44-32.4-10.2-3.5-16.7-2.2-23.8 4.8-6.8 6.5-9.3 14.3-13.2 40.2-8.7 57.4-.9 48.1-13.5 142-2.8 21.5-4.2 28-5.8 28-5.2-4.5-8.8-35.9-12.3-45.6 4.6-50.9 7.4-71.3 15.6-115.2 7.7-40.2 21-118.3 76-116.6l16.8 4.3c35.8 9 60.1 7 95.2-5 39.6-12.6 51.2-12 67.9-8.5 47.4 11.6 87.8 40 130.6 62 44.7 23.6 87 49 106.4 63.7 12.6 9.6 35 31 43.7 41.6a558 558 0 0 1 78 130.7c43 99.9 47.7 158.7 70.5 194 18.4 27.5 39.7 10.7 47.3-15.3 18.6-55.1 25.2-115.2 57.6-165 28.8-44.6 69.2-76.6 160.4-127.2 54.2-30 77.7-43.9 105-61.6a696.3 696.3 0 0 0 147-126.2c77.7-83.1 118.1-221 145.2-387.5a979.5 979.5 0 0 0 13-116.8c4.4-81.3-14.7-141.3-36-199.2-20.8-57-42.8-104.3-30.2-165.7 27.2-.8 54.5-1.4 81.6-3.3zm-1167.7 66.9c-1.3 0-2.9 3-4.7 10-1.8 5.4-5.1 61 5.7 85.6 23.7 61.5 77.3 75.5 83.4 74.5 2-5.3 2.1-5.6 2.1-9.5-40.9-17.1-70-44-77.8-89.3-1-8-2.4-71.5-8.7-71.3zm374.7 35.4c-97.1 3-241.7 19.4-271.8 44.9-15 12.9-12 27.7-7.2 37.5a95.3 95.3 0 0 0 30 32.7c14.8 9.8 32.2 12.2 64 7.3 28-4.2 152.5-35.1 184-39.4 57.3-6.4 79.9-3.3 146.4 15.7 60.2 17.4 157.2 75 175.5 66 4.6-3.5 5.6-12.6 1.5-17.8-1-1.4-127.4-126.1-247-145.5-15.9-2-43-2.5-75.4-1.4zm-24.3 149.2c-17.8-.3-35.6 1.6-53 6.2-19.7 6.1-38.1 19.3-56.2 40.2-9.5 11-11 13.4-11 17.3v2.7c7.3 5.3 19-7.6 23.5-12.7 25.8-26.2 40.7-34.6 67.6-38 68.6-8.6 159.7 28.9 191 46.7 17.5 10 25.6 15.6 71 50.1a265 265 0 0 0 25.3 17.5c6.5 3.7 7.6-2 8.3-6.9-16.7-14.5-141.8-121.3-266.5-123.1zm-449.6 15.6a84.5 84.5 0 0 1 .9 40.5c-31 1.9-53.3-3-89 13.5a122 122 0 0 0-50 40c-4.7 6.4-7.2 9.5-14.1 17.6-.5 5 .5 15.7 4.5 22.6a300 300 0 0 1 21.5-32.6c18.2-24 43.7-39.3 77.3-46.3 7.7-1.6 30.6-4.6 42.6-1 7.2 6-4 23.6-7.3 30a116.3 116.3 0 0 0-90.6 14c-14.6 10.9-29.4 22.4-36.5 39.7-3 6.1-6 11.1-6.4 11.1-1.2 0-25.7-78.9-25.7-109.7 48-42.5 80.4-40 140.5-37.3 23.3.9 25.6 0 32.3-2.1zm475 28.5a180 180 0 0 0-63 11.8c-35.7 14.7-45.3 37-75 57-6.2 4.2-13.2 9.7-13 18.2.4 9.8 6.5 15 14 17.5 19.8 5.7-2.3-11.4 72.3 9 37.4 10 75.5 10.3 114 8.6a384 384 0 0 0 47.5-8.6c25.7-6.3 54.6-12.5 74.5-30.6 2.4 0 10.6 10.8 17.4 7.5 3.7-1.6 6-4.5 5.8-8.5-43.5-42.1-68.5-59.6-127.4-74.7-5-1.3-33.4-7.8-67.2-7.2zm-7.3 16.5a69 69 0 0 1 20.6 2.7c-5.2 8.4-11 20.1-8.1 48 3 11.6 7 23 14.8 32.4a55 55 0 0 1 5 7h-16.4c-31.3-.4-44-2-76.6-9.7-22.3-5.2-44.4-10.8-67.4-7.8 31.3-26.4 79.9-72.1 128-72.6zm370.1 38.3c-12.3 0-40.8 17.7-82.5 22.7-9.1 1.1-12.9 1.7-22 3.4-1.6 3-2.5 5.7-1.7 9 20 1.1 40 .6 59.2-6a323 323 0 0 0 50.4-18.6c0-3.9-.6-7.5-3.4-10.5zm-914.5 20.1c-4.4 14-10.4 27.7-6.9 43 12.1 35.8 18.7 28.9 16.1 33-6.1 4.3-14 3-21 3a99 99 0 0 1-50-13.7s11.6-21 18.9-32.3a119.4 119.4 0 0 1 43-33zm1813 80.2c15.7 27.7 22 59 26.2 90.3 5.6 227.7-127 427-225.4 489.8-22.7 14.6-153.3 92.2-208.7-5.4-15.6-42.2-16.8-88-16.3-132.4 0-51.3 1-68.7 8.2-142.6a955.4 955.4 0 0 1 23.5-131.7c11.5-46.2 27.6-85.6 46.5-114 9.7-14.5 22.9-31.3 39.1-38.4-.4 10.2-13.3 20.4 12 21.2 12.3-12.1 24.2-25 38.4-35 52-39.8 87.2-56 136.3-62.3 32.7-3.7 84.5 1.7 120.3 60.5zm-829.2-57.5c-34 3.7-67.7 6-102 4l-23.6-2.5-4.1 3.7.6 7.6c7 1.5 67.9 9.2 94 4.4 16.8-2 30.1-3.7 41-8.7v-6.4zm-170.2 21.5c-4-.1-6.6 2.2-5.6 10 .6 3.8 58.2 29.5 68.3 33.5 10.3 4 25.6 9.2 30.3 10.3 11.8 3.1 12.8-3.5 9.7-7.3-5-2.9-10.1-5.6-15.7-7.2a461.8 461.8 0 0 1-71.7-32.8c-3.4-2-10.3-6.3-15.3-6.5zm-95.2 3.3c-78.1 46.1-180.5 29.6-183.8 29-18.1-2.7-36.8-6-87.5-23.1-13-2.7-11.2 5.8-11.2 5.8 2.4 6.3 69.8 28.2 115.3 32 96 7.8 164.2-26.3 169.3-31 5.3-4.8-.3-11-2.1-12.7zm969.4 19.4c-72.5 13.7-114.9 100.4-129 134.4-10 24.4-19.5 48-32.6 107.4 2.1 10 12.3 8.1 15 5.4 15.7-63.2 18.8-74 22.3-78.7 44.8 32.2 70.8 51.8 86 89.7 18.2 45.7 2 77.2-19.3 97.6a183.4 183.4 0 0 1-66.8 16.3c-15 5.3-30.6 10-38.5 25.4-8.8 13-16.5 29-31.7 35.4-32.6 16-34.2-13-24.8-34a133 133 0 0 1 20.7-26.6c13.6-15.2 25-36 18-60 0-.3-11.4-49.7-19.2-66.7 0 0-8.2-3.2-11.1 4.4 12.4 43.2 37.4 85.6-4.8 118.8-15.6 17.6-36.5 51.4-16.5 74.7 26.8 17.7 46.1 3 66.9-16 16.8-30.1 33.5-43.3 68.2-43.7 19-2.2 37.2-7.2 53-18.5 27.2-29.4 36.3-54.8 25.7-95.5-6.6-24.6-15.6-40.7-35.1-62.8-20.6-23.3-65-51.9-65-53.4 0-1.6 11.1-26.5 16.4-36.5 82.6-157.2 178.6-102.4 197-58.3 24.5 49.7 14.7 111.3-7.4 193.2a496.5 496.5 0 0 1-144.9 245.4c.2 6.5 2.8 9.4 9.9 9.5a424.1 424.1 0 0 0 93.5-110c31-51.6 63.8-148.7 76.3-225.3 7-43.5 6-92.6-19-131.4-32.9-48.7-91.6-43.2-103.3-40.2zm-1304.4 4.8s-8.3.7-6.6 7.4c6 11.7 35.6 39.6 61.6 58.1 35.8 25.5 69.4 39.5 142 59.1 27 5 12.8-10.1 11-10.1-2.1 0-37-10-53.1-15.1-56-18-92.6-40.1-136.5-82.7-9.1-8.9-19.1-18-18.4-16.7zm-442.3 10.7c20.3 6.5 40.4 13.2 62.2 12.2v.9c-15.7 24.8-2.5 2.4-54.7 73.8-2.3-5.3 2.5-19.8-.4-51.2-2.7-25.8-11.1-35.7-7-35.7zm1778.4 128c-2.7.1-5.2 1.8-7 5.2 7.6 47.4 23 96.2 15.3 144.4-15.5 68.4-51.3 99.5-106.8 139.5-3.7 20 12.9 6.6 21.2.7 50.7-35.8 85-71.4 98.6-136 9.3-50.8-5-101.6-14.4-151.3a11 11 0 0 0-6.9-2.5zm-1570.6 158.7c-47.7-2.4-85.3 21.5-93 35.7-13 27 34 28.8 52.6 19.4v-11.8c31.6.2 58.7 1.6 88.5 14.9 20.6 7.5 49.7 18 60.7 9.9 5.2-4.4 9.1-10 7.9-17-9.4-16-31-28.9-55.6-39-19.9-8-34.6-11-61-12.1zM1404 1737.3c2 .1 7 4.2 14.8 12a140.7 140.7 0 0 1 30.3 42.6 416 416 0 0 1 20.5 49 751.8 751.8 0 0 1 20 81 765.3 765.3 0 0 1 8.8 185.3c-2 27.2-5 54.6-8.7 81-11.4 78.4-17.3 75.2-29.7 133.3-9.5 0 1-1-46.7-17.8-3-7-5.5-14-7.2-21.5-10.5-39.7-14-88.6-10.8-147 3.8-67.4 21.8-146 26-201.3.6-9.8 2.6-63-1.7-99.4a1374 1374 0 0 0-14.1-84.5 65.2 65.2 0 0 1-2.2-12.5l.7-.2zm-12.9 12h.9c1.3 0 2.8 7.5 6.4 30.7a662 662 0 0 1 9.8 115.5c0 13.7.2 27.4-1.7 41-7.2 82.3-24 141.7-26 222-2.3 87.5 17.8 137.6 16.7 138.8-.8.8-18.4-8.5-34.2-13.7-27.1-62-33.3-106.3-28.4-141.3 2.6-39.6 9.8-78.3 20.5-125.8 24.2-107 28.2-134.2 36-267.3zm231 32.3c7 3 70.7 30 124 61.8 22.8 13.6 77.2 46.8 116.7 86.1a360.1 360.1 0 0 1 59.1 81.2c26.9 56.8 39.8 119 60.4 178 10.7 33.3 17 57 21.4 81.2 4.2 24.1 5.5 48.4 4.9 72.8-2.7 16.6-4.1 39.8-12.7 54.3a1321.3 1321.3 0 0 0-119-39.8c0-.6 13-22.7 22.4-50.2a707.2 707.2 0 0 0 31.7-172.1c.7-13.1 1.9-26 0-39.1-1.7-27.8-9.6-44.4-31.3-63.6l-8.6-7.8c-2-4.2-3.7-8.6-4.4-13.2-2-10.5-13.1-32.4-32-39.9l-9.7-10.3a1133 1133 0 0 0-83.2-78.8l-14.5-12.4a320.5 320.5 0 0 0-52.5-35.9c-28.8-16-59-28.8-90.6-38a90 90 0 0 0-48 4.2 98.9 98.9 0 0 1-56.2 1.5l-17.7-3.2a38.7 38.7 0 0 1-13.2-20.8c.3-.4 7.5.4 16 1.8 67.2 10.6 77-6.5 103.7-6 6.9 1 18 3.3 33.3 8.2zM1590 1810c29 .6 54.4 16.3 83.2 28.3a533.3 533.3 0 0 1 49.7 31.1 1045 1045 0 0 1 82.8 73.6c7.4 7.2 22.6 17.2 12.8 23.9 0 0-28.5-23.5-44.4-34.6a466.8 466.8 0 0 0-60.6-38.5 310.6 310.6 0 0 0-65.6-28.7c-70.5-22.7-103.8-10.3-148.6-15.4-.5-12.2-13.8-28.6-16.3-38.7 30.3 8.4 55.2 10 86.1 1.2a82.8 82.8 0 0 1 20.9-2.2zm1409 13.3c-13.5 91.8-7 218-7 218.4 5 88.1 17 174.4 32.7 236.9 3.8 14.6 20.2 75.4 46.5 115.3 30.5 46.6 45.8 101.3 45.6 165.1-1 251.6-280 594.5-541.9 751.2-147.6 88.5-363 146-496.2 54.6-53.8-37-83.2-80.2-116.3-171.4-32.5-89.5-55-223.8-60.6-259.2 1.4-1.2 87-13.4 158.6-61.3 50.6-34.9 95.8-78 153.3-102a901.3 901.3 0 0 0 274.3-185.8c39.5-39.7 106.4-118 141-165 73.3-99.5 115.9-169.7 142.2-234.7 5.6-13.9 37-100.7 32.8-172.8-2.7-70.7-23.2-186.8-21.1-186.8 3.7 0 14 22.6 58.2 34.5 29.7 7 78.5 8.9 158-37zm-1494.7 51c74.6 0 86.2 1.7 95.5 3.3a551 551 0 0 1 77 23.4c-5.5 2-11.2 2.4-17.1 3-48.4 6-96.7 12.7-145.6 10.3-3.2-5.2-5.9-25.6-9.8-38.1zm194.1 39 12.8 6.9c23.9 12.8 54.7 35 76.3 51.2-8 2.8-26.6 5.5-63 19.8-96.5 37.8-175 113.2-186.5 115.7.3-.7 4.5-9.7 7.8-17.7 12.3-29.8 35.7-69.4 46.3-99.9 10.9-31.1-4.1-53.3-2.2-55.2.5-.5 36.3-4.4 75.2-11.3 11.4-2 22.8-4.5 33.3-9.5zm-133.9 19.3c33.9 11.2-17.3 126.4-40.8 148 1.9-49.5-3.8-98.3-7-147.4zm257.3 58.5c35 .5 41.3 17.5 41 40.4-1.3 22-2.7 39.4-7.1 57.8-10.3 42.5-31.8 87.1-63.8 132.7-12.4 17.7-54 72.2-94.8 99.9l-73.5.3c-42 5-93.6 14.8-127.6 31.2a86.2 86.2 0 0 0-18.8-21c30-73.6 40-159.8 40.3-162.2l6.2-8.5c19.3-26.3 56.6-58.3 106.3-91.3 25.7-17 125.5-80.2 191.8-79.3zm64 61.4c5.4-.8 19 21.8 19 33.1.1 21.5-21 89.6-41.9 135-20.5 44.9-45.3 84.4-66.4 106l-7.7 7.8c-12.7-.4-52.1-7.1-52.7-8.6 33-35.7 67.4-66.3 90.2-110.2 25.5-41.2 58-104.7 59.5-163zm-575.4 71c-.2 47.2-.8 92.4 15.6 137.4 1.8 5.6 3.3 10.5 3.3 11a575 575 0 0 1-62.4-18.5 219 219 0 0 1-19.2-67.5 64.3 64.3 0 0 1 7.8-37.8 70.5 70.5 0 0 1 54.9-24.6zm605.5 27.8c-3.4 31.6-15 93.3-16.4 98.9-8.5 37-26.3 87.3-35.7 100.4-2.6 3.7-3.1 3.7-9.1 1.6a194.7 194.7 0 0 0-39.6-8.8c11.5-22.9 31.8-24 73.8-121.3 19.2-44.5 19.5-60 27-70.8zm-982.3 93.2c1.1.1 1.8.2 2 .4 1 1-27.7 25.1-28.8 42l-.3 3.7 3.8.8c10.7-8.9 10-16.8 37.8-44 57.5.7 284.3 24.7 307.3 27.5a407.9 407.9 0 0 1 74.4 23c16.2 7.3 24.5 7.8 28.7 11.4-14.4 2-29.6 4.2-39.8 15.7-10.1 12.8-21.6 39.2-4.8 65 2.3 3.6 7.3 9.5 11 13.3a108.2 108.2 0 0 0 63.8 29.4c25 3.2 39.4-3.8 56-19.9a155.9 155.9 0 0 0 31.6-45c6 5 5.9 14.5 7.4 21.7 4.1 30.2-16.8 52.1-27 60.8-48 42.6-91.4 35.6-150.7 35.7a1191 1191 0 0 1-90.2-14.2c-98.1-57-205.6-91.9-309.3-136.4-60-20.2-119-16.6-175.4 13A16317.2 16317.2 0 0 1 401.5 2505c-7.4-4 34.8-70.3 48.6-70.5 15-10 21.2-12.5 109.7-43.4 134.6-47 236.3-111.8 282.2-125-4.4 7.8-7 16.3-8.9 25.1l3.9 3.7c5.1-5 10.5-25.5 20.6-35 20.2-19 61.2-14.7 76-15.4zm431.6 79.7c17-.6 33.9 2.6 39.7 4.3 20.5 6 59 22 61 25.2 2.4 4-13.2 30.6-33.2 49.4-9.5 9-26.2 20.4-45.2 14-23.3-5.5-44.8-15.4-60.5-34-19.6-46.3 9.7-57.8 38.2-58.9zm314 22a645.8 645.8 0 0 1 135.5 20.6c65.7 16 127.5 34.2 153.5 44.9 57.5 24 93.6 58.7 88.3 67.1-15.9.6-33.7-6.2-49-9.5-76.1-18.2-111.8-21.4-172.3-18.3-71.8 5.8-144 14-216 7.2-39.2-4.7-78.5-12.4-114.9-28.4-.6-.5 9.6-29.3 3-55.4l5.2-2.3c58-22 115-27.9 166.7-26zm1557 115c.4 33.5 10.4 67.9 7.3 108.4-1.6 68.8-17.8 134.8-46.6 214a1516.8 1516.8 0 0 1-74.5 159.3c-204.8 355.7-468.9 498.7-576.1 544.7-147 63-291.6 93.8-436.1 35a371.8 371.8 0 0 1-148.7-107.8c-27.5-32.7-80.3-109-108.4-237.6-22-100.7-16.9-179.4-11.7-236.5 11.5-4.8 25.2-1.7 37.1-4.8l2.3 14.8c6.9 45.3 18.3 106.3 25.6 136.8a1253.6 1253.6 0 0 0 44 142.6c8.7 22 35 83.1 73 119.6 21.8 22.5 45 39.4 74.7 54.3 204.1 102.4 473-59.5 547-108.8 264.6-176.4 516.7-537.6 495.2-761.6-27.5-207.5-79.6-152.6-61.7-178.7 39.2-3 76.9 68 157.6 106.4zM1498 2441.8c47.8 19.7 107 37.3 220.5 33.6 63.9-6 128-15.1 192.3-10.2 43.2 6.1 122 22.9 126.1 26-29 12.7-62.4 12.7-93.2 17.3-145.8 11.6-194.6 29.7-274.5 35.5a346 346 0 0 1-172.6-32.4c-13.1-6.2-38-19.6-42.7-23.2l-2.8-2c17.8-12.6 34.8-26.3 46.9-44.6zm-73 57c.6 0 2.4 1.4 4.1 3.2 6.5 6.7 11 5.7 38 21 5 3 10.3 5.3 13.5 10.5a366.3 366.3 0 0 1 35.2 54.3c25 46.1 42.4 95.1 55.8 158.2l3.8 17.8c3.1 33.2 3.5 58.7.1 78.6-11.3 66.2-46 96.7-49 91.7-2.3-3.6-4.4-38-26-103.3-5.6-16.9-11-33.7-18.8-49.7l-22.3-51.8a2260.5 2260.5 0 0 1-36.6-87.7l-6.3-16.3c15.2-53.1 2.7-88-18-110.5l-5.4-6c10.6-3.5 21.2-7 31.9-10zm-119.2 11.7 48.8 1.5c-7.3 12.8-32.2 33.2-43.3 45.1-7.8-8.4-16-16.6-23-25.6 0-1.5 2.2-2.5 17.5-21zm67.8 11.4 5.1 5.6c44.9 41 6.6 111.5 5.6 111.7-12.6-19.5-32.7-35.7-48-53a70.6 70.6 0 0 1-10.3-11.3c8-19.7 35-36.6 47.6-53zm564.4 10.7c1.2 1.3-12.5 31.1-39 52.2 0 0-9.3 6.8-10 6.8-2.6 0-10.7-23.1-33-48.8 5.5-3.5 76.2-9.8 82-10.2zm-418.2 14c1 0 7.2 1.8 14.3 4.4 91.4 33.1 218.6 10 265.4-.4 7.8-1.4 15.6-3.3 23.5-3.3 20.3 15 50.3 40.8 60.4 113-31-1-45.6-23.6-184.8-29.9-83.5-6-167.8-53.5-179-83.8h.2zm-676.4 61c78.7 41.9 144.6 56 152.7 61.8-10.5 7.2-38 49.7-42 49.6-1.7-.1-26.6-23.2-58.4-47.1-53.2-40-90.2-36.3-90.2-38.3 10.8-9.8 25.6-15.2 36.5-25.1zm439.6 4.2c4.3-.2 9.4.7 15.7 2.6l11.8 5.7c35.4 17.1 65.8 43 69.5 59.4.8 3.4.8 6.3-.2 9.9a88.3 88.3 0 0 1-24 43.5c-19 17.2-39 15.3-59.5.8-8.4-6-22.8-21.4-29.6-31.5a72.8 72.8 0 0 1-10-63c8.3-17.3 13.5-27 26.3-27.4zm119.1 41.5c.3.3 2.9 7.3 5.8 15.6 7 19.5 12 32 23.3 57.6a501 501 0 0 1 9.3 21.7c0 1.5-6.2 1.6-50.8 24.6l-.5-.9c-.3-.5-.1-1.2.4-1.5 1.7-1 9.6-16.4 12.3-24a139 139 0 0 0 6.6-56c-7.4-29.8-11.3-25.1-11.2-31 0-1.7 4.2-6.7 4.8-6zm-383.6 22.3c37.1 6 61.5 22.3 87.7 50-38 53.7-45.4 76.6-48 76.6-28.7-17.3-57.3-48.2-84.5-68.2 14-20.3 29.6-39.2 44.8-58.4zm107.3 65c8.3 3.3 18.5 14.4 27.5 18.3-16.5 27.3-32.2 55.5-49.6 82.1-.3 0-16.8-14-22.8-25.7 26.7-53.3 44.5-74.7 44.9-74.7zm49.6 30.2c41.8 25.4 55.7 26.8 58.7 29.8-24.3 36.7-62.6 64.8-84 104.1-11.5-13.5-19.4-30-30.9-43.7 3-5.7 47.3-78.6 56.2-90.2zm82 38c41.9 8.4 62.1.5 62.8 3.4 0 8.6-116 70.5-135.3 83-.9.5 72.5-86.4 72.5-86.4zm-477.9 122.7c47.4 43 105.3 69.5 159.8 101.9-8.5 21.3-16.7 42.8-26.6 63.5-39.6-20-73.7-49.9-111-73.7-38.6-25.8-52-30-126.2-39.5a416.2 416.2 0 0 1-34.1-5.2c-2.6-8.3-1-17.5-2.2-26 47-5.3 95.2-4.8 140.3-21zm-549.2 30.3a56 56 0 0 0-11.5 1.5c-35.7 11.4-64.7 79.8-59.5 114.1 1 18.9 1 50.2 11.8 65 16-21.9-26.9-81.6 36.6-152.6 10.9-12.2 16.4-17.6 25.7-19.3 0 0 8.3-8.6-3.1-8.7zM1165 3013h1.6c6.5.8 26.6 31.8 40.4 70.2 9.4 30.4-11.5 56.2-24.5 61.6-37.8 19-67-64.2-43.9-106.8 8.1-16.2 18-24.8 26.4-25zm-208.5 40a248 248 0 0 1 25.4 31.5c-4 14.2-10.5 27.8-15 41.8-7.8-2-32.9-19.3-32.9-19.3.5-3 21-53.6 22.4-54zm3139.5 53.3a1233.8 1233.8 0 0 0-153.1 162.9 1400 1400 0 0 0-133.8 204 1656.6 1656.6 0 0 0-76.7 159.5 1792.7 1792.7 0 0 0-78 221.2 1638 1638 0 0 0-41.8 226.8c-.4 5-.6 10.1-1.7 15.1h33.3c2.3-28.4 4.3-45.7 17.6-118.8 22.2-122.3 46.2-192 85.6-294.8 54-136 164.6-365.1 348.6-534.4zm-3096.6.7c3.8-.2 26.6 28 30.7 34 0 .9-13.8 37-14 37-1.4 0-3-4.5-30.3-35 2.7-9 13-33.2 13-35.2 0-.5.2-.8.6-.8zm27.7 139.7a5 5 0 0 1 2.2.4 73.8 73.8 0 0 1 23.6 16.4c16 14 23.9 32.3 21.5 53.4-3.3 11.2-10.7 29.4-23.2 29-6.1.6-10.9-.7-16.6-3.4-10.7-8.1-34.5-29.1-27.3-51.4.5-2.6 8.5-43.9 19.8-44.4zm-169.4 88.8 1.4.6c1.1.4 29.3 18.4 32.7 20.7.4.4-.6 4.6-4.7 18.2a781 781 0 0 0-8.2 32.4l-9.1 39.5a1747 1747 0 0 0-33.5 190.5c-5.8 45.2-13.1 90-16 135.5-7.4 6.3-30.4-25.2-43-43.9 10-51.4 13.2-89 42.8-232.5 11.9-53.8 21.8-108.1 37.6-161zm2763.8 34.9c-14.5 4.5-24.8 34-30.1 45.8a950.5 950.5 0 0 0-43.6 119c-8.9 29-29.3 111.5-36 145.8-31.2 158.7-27.8 324.3-22.5 414.7h22.5c-3.6-46.9-3.6-101.9-3-142.5 2.4-159.3 23.2-307 75.3-467.8 9.4-29.2 29-84.7 34.6-98 5.4-13.2 5-17 2.8-17zm20.6 194c-2.2 0-5.7 6.8-5.7 6.8-27 65.2-37.8 138.3-49.7 208-12.4 68.3-22 155.3-29.7 285.7-1 18.5-1 23.6-1 30.8h23.7c4-164.7 29.8-327.8 58.7-489.7 7-33.8 6-41.8 3.7-41.7z"></path></svg></svg></g></g><defs><clipPath id="SvgjsClipPath1214"><rect width="1000" height="1000" x="0" y="0" rx="250" ry="250"></rect></clipPath></defs></svg>