<svg xmlns="http://www.w3.org/2000/svg" version="1.1" xmlns:xlink="http://www.w3.org/1999/xlink" width="1000" height="1000"><g clip-path="url(#SvgjsClipPath1174)"><rect width="1000" height="1000" fill="#fffffd"></rect><g transform="matrix(0.2197265625,0,0,0.2197265625,50,50)"><svg xmlns="http://www.w3.org/2000/svg" version="1.1" xmlns:xlink="http://www.w3.org/1999/xlink" width="4096" height="4096"><svg xmlns="http://www.w3.org/2000/svg" viewBox="0 0 4096 4096"><path d="M2088.3 3.7c-163.4 20.8-333.6 129.5-445.9 207.8-159.2-37.8-327.6-83.6-490.4-41.2-108.9 30.4-271.8 142-275.6 332.7-2.8 258 343.4 377.4 426 402.2-41.5 81.2-51.4 134.3-47 181.2 9.7 109.1 54.5 108.1 42 250.3-30.2 47.7-63.6 91-47 149.6-9.6 50.7-14 85.4-10.6 131 17 123.9 57.5 243 87.4 364.3-4.7 27.5-18 97-19.4 105.7a96.1 96.1 0 0 0-77.5 42.3c-12.6 18.4-23.4 46.4-5.2 104-223.7-17-272.9-30.5-321-24.7-72.3 9.8-191.3 94.8-383.1 160a424.2 424.2 0 0 0-67.2 27.4c-24.1 13.3-57.2 35.2-81.7 108.4-22 16.6-93.2 16-143 86.4-28.3 41.5-33.8 87.4-36.5 170.4-36.5 46-44.5 70.9-49.2 120.7-30.7 195.1-45 392.8-72.8 588.2-21.1 131-68 172.5-70.2 183-1 33.2-.4 66.7-.4 100 42.8-73 89.8-145.9 111-228.7 23.5-122 17.8-239.2 49.8-417.1 2.3 17.4 6 28.5 13.3 38 2.7 3.8 12.3 20.6 19.1-1 10.5-29.1-.6-44.6 1.5-79.3 4.3-70.3 60.6-83.7 63.9-102.7a14.6 14.6 0 0 0-8-16c-8-3.9-40.3-7.2-69.4 41 11.3-74.7-1.3-162.4 70-209 11-7.6 115.2-26.3 83.7-55-15.4-13-82.8 8.9-94 13.6 4.3-55 7.2-108 52.8-144.7 176.8-71.4 111.8-57.6 451.6-208.7-6.6 15.8-6.3 51 2.7 65.5 5.2 8.5 17.2 10.7 24 1.8 3.8-4.2.3-76.5 23.6-88 49.7-23 102.5 2.5 148.9 22.3 105.8 51.5 196.4 62.7 285.3 136.6 3.3 2.6 21 16.9 61.4 59.8-35.1-2.3-54.3 38.5-57.8 50.5-19.7 65.4 50.2 133.9 93.8 135.7h5.3c-106 20-170.7-67-250.4-117.2-19-10-22-4-82-23.4-60-18-116.2-46-173.5-71-23.6-8.5-41.6 18.2-17 33.7-17.4 10.5-35 20.8-52 32.2-96.8 13.3-192.6 30.5-289.4 43.8-16 3.4-31.2 33.2 10.9 39.2 104 4.3 216.4-36.2 314.1-37.3 63-2.6 108.6 44.2 153.9 82.2 62.5 53 129.4 92.6 174 163.7 8.3 18.7 26.6 50.1 33.8 69a98 98 0 0 0-40 49.4c-21.3 56.4 11.7 105.5 19.7 114.4-35.7-.2-67.3-28-131.6-108.4-12.9-16.5-26-33-44-44.2-67.3-33-123.5-72.6-183-118.2-4.4-1.4-9.5-2-14 0-1.8.7-12.9 6.1-7.1 22.6-95.9 23.3-164 4.5-225.8 18.3-7.7 7.4-13.6 17.3-8 27.7-26.3-1.2-65.7-17.4-91.4-13.5-33 2.4-20.6 30.7 10.4 39.6 115.5 35 237.6 37.7 311 54.5 68 33.9 131.6 80.1 195.8 122.4 28 18.2 47.9 45.6 71 69.4-16.4 8.2-21.8 26.4-26.3 42.8-10.4 32.3-6.8 60.2 17 84.5-70.6 5-123.8-52-155.9-64.1-59.1-7.2-111-56.2-168.1-64.5a149 149 0 0 0-36.6 2.4c-127 19-194.1-35-218.6-31-34-4-16.7 25.3-7 34.4 12.6 9.7 42.4 23.3 59.2 29-46 5.8-88.2-5.6-114.5-13.2-27.5-9.9-28.2 16.2-23 21.3 26.7 30.2 98.7 35 133.1 33-45.5 34.3-94.6 42.5-112.8 55.4-6.5 11-2.2 24 10.5 27.7 3.3 1 82.5 11.3 191-108 10.7.7 21.4 1.3 32 1.5 4.4 63.6 40 129.3 43.7 228.2 1.4 33 21.6 28.5 29.3 20.6 23-73.7-16.8-177.8-38.2-250 15-1.4 30-6.7 45.1-5.6 20.5 3.6 75.7 39 152 60.3-13.6 47.4-23.6 95.7-34.5 143.8-31.4 29.8-70 53-107.8 86.3-9.2-10-24.6-8.5-31 9.3-19.7 59-44 107.8-85.5 155.3-64.1 72.9-152.8 85.4-245 76.6-9.9-.8-14.8 1.8-18 12.2-5.2 20 25.8 29.8 38.6 32.4 36.3 8.5 109.5 21 198-39.2-27.9 69.8-86.2 243.4-86.2 297.5h48.8c82.6-352.3 170.7-480.2 272.6-556.3-5.3 28.6-17.8 96.5-27.3 172.9-.7 27.9 33.7 74.3 69.4 84.5 17.6 2.8 33.2-7.2 38.8-26.8 11.9-39.5 21.2-286.8 73.7-359.3-13.9 232.3 58.1 456.3 89.2 685.2h69c-25.5-226 52.8-599 50.7-647.4-1-31.4-21.4-35.8-33 .7-38.2 142.6-58.7 289.4-68.2 436.4-43.1-163.2-69.3-328.3-70.3-497.4 58.3-1 121.4-1 139-68.3 13.5-54.3-29.7-94.7-60.4-133.5l7-20.8c34.2 24 85.2 38.3 127.6 19.1 44.8-20.1 72.2-71.2 62-111-19-52.3-49.4-103-65-142 83-31.2 209.9-131.3 265-153.6a613.3 613.3 0 0 1 26.4 68.4c13.3 36 13.1 111 57.2 118.4 31.9 1.1 63.6-49.6 74-83.6 27.7 24.7 79.5 60.6 204.2 64.5-19.2 81.5-12.6 426.5 218.7 570.7 373.3 228.2 816-174.7 886.3-242.5 307.7-296.6 389.9-655.5 355.2-801.7 48.7 6.7 50.2 40.8 129.6 54.5 97 17 18.7 11.1 161.2 39.3 131.3 29.1 253.6 92.5 375.5 148.5 70.4 33.7 65.4 55.8 107.3 83.5 11.7 7.7 40.5 15.4 53.3 21v-48.6c-62.9-29.6-52-54-147-103.2-76.4-39.8-21.5-6.1-169.3-76.8-125.1-63.8-264.2-84-399-118.6-25.1-6.2-47.7-35-94.7-46.8-23.4-3.8-46.3-5.7-67.4-17.8-47-27.4-89.4-97-150.4-90.7-28-82.5-61.4-289-37.5-501.7 54.2-35.2 99.7-108 114.7-132.9 54.6-90.7 146.7-281.4 87-457.6 12.3-117.9 34.3-434.1-92-627.7-36.3-49.3-277.6-363.8-360.1-421-165.8-106-561.7-170-586.4-172.8a416.2 416.2 0 0 0-105.5.7zm55.9 44.8c101.3 1.1 472.8 88.3 586.6 153.1 10.3 101-106.2 356.5-138 412-259-207.2-572.5-307.7-889.7-387.7 134.4-84 277.7-173.3 441-177.4Zm-614 186.5c412 89.7 823.7 214.1 1141.6 504.5-354.9-1.2-528-60.4-758.9-221-217.5-161.8-431.1-347.8-722.3-300.4a371.2 371.2 0 0 0-234.5 167.4c56.4-120.4 186.8-161.6 234.6-173 87-20.6 162.6-16.8 339.6 22.5zm1620 491c40.1 139 54.1 294.8 41.1 439.6-31.6-28-79.7-59.3-175.2-30.3-87.4-172.6-214.7-363.7-390.8-497.5 47.6-74.2 141.8-303.5 146.5-410.8 123 164 306.9 300.5 378.5 499zM1330.9 257.3c123 10.5 241.3 69.3 347.5 147.6-108.6 21.6-200 83.9-244.2 153.6-59.3 91.8-82.4 199.5-113.9 302.6-546-190.5-324-457.8-283.4-501 98.5-104.7 231.6-108 294-102.8Zm604.6 336C2110.2 709 2295.1 781 2606.6 787.1c-12.7 90 41 156.4 60.4 253.8 26.3 189.4-48.6 401-69.4 454.7-89.2 223.1-305 263.8-449.6 393.5-57.7 52.6-74.5 132.2-93.5 204.8-53.4-164-114.6-329.1-189.2-484.4-1.6-3-64.7-119.7-129.4-179.2-28-29.7-48.9 6.5-33.8 18.6 47 39.8 58 102.2 10.6 129.5-21 11.4-31.5 5.7-42.9 13-13.5 9.1-6 23.3 2.4 33 15.5.2 31.2-1.3 46-6.4 42.8-14.4 58.7-51.5 62.3-77.4 3.4 4.8 68.8 98 116.8 229-101.9-84.1-242.7-156-292.8-161.5-52.1-6.7-85.2 25.8-129.4 20.5-.4-.1-1.6 0-.8-.5 8.6-8 7.1-23.3-3.4-32-17.6-14.8-96.5-13.9-151.7-84.2-44.2-58-24.5-86 22.7-150 61.6-80.4 125.3-162.5 151.9-261.8 19.4-75.6-35.2-81.8 2.5-212.6 3.3-10.3-18-23.3-30.8-8.3-13.7 16.1-17.4 60-18.2 73.1-15.7-8.2-57.3-24.1-113-2 24-44.2 38.5-92.4 52-140.5 41.2-188.8 141-334.6 345.8-364.2 94.2 70.6 158.2 118.2 203.3 147.6zm1038 560.7c-12 6.3-23.8 13.1-35 20.9-50.5 11.6-88.3 29.8-131.8 94.1-32.4 53.1-44.7 115.7-55.6 176.2-54.5 336 27.8 461.2 9.5 627.4-20.1 116-98.2 251.7-233.6 409.7-91.8 123.9-223.5 193.8-355.6 264.2-99.1 49.2-138.7 132.9-296.2 147.4-95 8.9-199.5-.6-258.6-66.7 5.7-76.1-22.8-159.7-37.4-196.9 63.2 35 130.5 30.2 198.6 38.8 39.7 5 59.4 17.2 92.5 20 15.2 1.3 34.8-.8 43.7-17.4 9.3-19.3 3.8-41.3-2.5-60.7 24-16.2 45.8-35.2 57.4-70.9 40.4-6.5 97.2-10.6 118.2-52.3 17.2-39.4-29.8-68.7-57.4-87 35.7-139.2-43.6-359.8-128.3-478.5-98.8-104.5-262.9-177-307.5-179.5-21.2-1.3-45.6 8.6-78.3 7.3-9.2-.6-23-3.6-47.6-3.4-20.2-21.3-50.6-56.7-83.6-42.5a60.6 60.6 0 0 1 33.8-38.4c14.1-4.9 26.5 5.6 58.6 7.9 48.4 5.6 90.7-27 126.4-19.6 51.7 9.6 209.6 105.9 230 120 66.7 48.2 110 141.5 123 172.3 22 49.3 35.6 101.7 52.2 153 11.2 33 25.2 59 48 58.9 41.7-1.4 52-82.8 59.6-113.6 39.2-160.5 206.8-213.4 332.5-295.2 87.4-64.2 149.9-135 191.9-234.4 46-112.4 75.2-283.3 79.6-381.4 7.5-162-77.6-227.7-68-346.3a1836 1836 0 0 0 66.3-2.6 1817 1817 0 0 1 255.2 369.2zM1549.4 836c-16.6 34.6-7.4 157.3 86.6 182.9 24 5.6 24-11.1 24.2-28a176 176 0 0 1-38-19.7c-47.5-35.2-37.5-71.6-44.2-122.3-5-31.8-24.8-21.2-28.5-12.9zm142 57.5c-17.2 5.4-73.1 27.2-41 74.6 11.2 17.3 32.5 40.5 66.6 42.2 73.8 3.3 186.6-56.5 304.5-40 102.8 20 155.6 63.8 216 79.3 34.3 7.8 33.5-21 31-29-2.9-9.2-111.2-116-227.3-149.8-74.5-21.5-278.1.8-349.8 22.7zm92.3 179c-21 22.4 3 28.3 7.8 29.1 23.5 4.2 34-31.2 70-46.3 30-9.5 63-7.3 93.5-.3-63.5-3.5-103 16.1-127.5 39-9.6 9-18.6 18.5-29.1 26.4-8.6 6.1-17.7 11.8-22.4 21.6-8.7 19.1 7.6 42.5 32.2 41.6 9.3-.7 2.4-3.7 18.8-2-14.6.2-20.8 12.8-17.6 22.2 5.4 16.1 89.3 39.2 140 40.7 78.2 3 158.8-22.5 167-41.6 4.2-10.6-2.5-19.6-10-26.4-9.7-2.8-74.1 45.1-186.2 28.8-29.5-4.5-50.2-11.2-83.1-22 82.7 18 194.1 34 269.4-19.3a25 25 0 0 0 15.5 5 21.2 21.2 0 0 0 19-20.2c21.4 15.6 29.8 19.9 38.5 13.6.6-.8.5.1.6.6l.9 4.4c14.4.9 28.9 1.5 43.3 0-2.2 6.7-2.6 12.2 1.5 18.3-10.3-5.2-20.1-13.2-32.2-12.6-11 1.3-17.7 12.1-14.3 25.6 5.7 12.1 74.5 42 104.7 50.9 29.6 8.4 40.3-13.6 20.9-28.3-14.6-9.6-30.3-9.9-77.5-34.7 21 4.6 101.5 15.4 147.8-3.3 25-4.8 14-35.3-8.4-31.8a613.9 613.9 0 0 1-96 4.5 362 362 0 0 0 36.8-15c6.3-11.3 3-23.6-6-32-10-.6-113 33-118 27.4-29.3-25.3-100.3-81-184.4-109.3-79.4-28-159.6-23-215.5 45.4zm-329.6-20.2c.4 3.9.6 9 0 14.7-61.5-1.3-100.6 13.3-141.2 62.6-2.1-8.4-7.7-31-9-47 48.4-43.4 93.4-27.6 150.2-30.3zm477.5 42.7a88.7 88.7 0 0 0 6.5 65.5c-50.7-1-64.6-11-105-16.7 19.8-16.8 63.3-50.1 98.5-48.8zm-485.2 7.6c-.7 2-1.7 4-2.7 6-11.8-2.2-24-2.6-35.9-1.4 19.4-5.3 37.2-4.7 38.6-4.6zm-69.2 105c-12 .2-23.7-2.2-34.8-6.7a104 104 0 0 1 25.5-33.6c-1.2 11.5.1 21.7 9.3 40.4zm1709.3-36c28.4.2 84 11.4 107.7 91.3 20.3 70.5 5.9 145.7-11 215.5a657 657 0 0 1-82.4 185c-45.3 69.7-94.3 120.5-173 152.7-35.2 13-102.3 28.1-132.8-29.3-11-26.8-14-70.3-14.4-79.9 0-.7-6.3-125 17-254.2 23.7-130.6 56-171.3 74.4-192.5 7 10.1 27.1 12.9 32.1 6.4 46-49.8 121-95.4 182.4-95zm-28.8 25.4c-46 10.8-80.1 48-103.9 85.5-28.3 44.9-46.8 97.8-61 164-2.2 15.5 22.2 29.8 36.1 14.2 3.2-3.8 6.2-24.2 18.2-66.9 28.3 20.6 62.1 45.2 73.3 88.4 7.7 30.3 6 78.4-79.6 83.4-61.7 13.8-51.9 66-85.9 65-9.5-23 30.7-43.1 41.8-79 9.9-27.6-16-98-21.3-109.1-23-11.3-34.3 9-31.5 16.6 6.4 25.8 22 51.8 17.3 79.3-4.5 22.6-33.5 31.7-44.7 71.7-3.4 12.1-7.6 41 21.8 54.1 21.8 9.3 40.1 1.3 54.3-9.2 27.5-20.1 19.5-25.4 36.6-41 18.9-17.2 144.5-8.9 133-120.7-7-64.5-51.6-101.1-100.5-137 11.3-26.3 35.6-75 70.3-102.8 49.4-39.7 106.4-23.2 124 36.4 10.5 35.7 8 90.5-23.7 194.5 3.1-46.6-9-92.1-17.7-137.5-15.2-18.7-35.2-5.5-36.4 5.4-6.8 23.9 45.2 114.7-6.4 199.2-20.3 33.5-52.8 56.7-84 79.3-5.3 30.7 11.2 30.2 17.5 29 14.2-2.5 54.6-37 62.7-44.7-40.2 57.7-72.3 78.3-72 84 .1 29.2 24.9 24.7 27.8 22.8 61.9-48.6 121.3-126.4 161-278.3 21.4-82 26-143.8-2.3-194.8-28.4-51.3-87.6-61.4-124.8-51.8zm-1297.1 5.2a17.3 17.3 0 0 0-10.6 12.9c-2 10.9 35.8 84 203.7 130.6 46 13.1 41.9-16 32.8-25.8-13.8-15.8-91-6-192.2-100.3-10.8-9.6-17.9-22.8-33.7-17.4zm-391.3 43.7c-7.2 9-11 13.8-20.7 26.6-.3-10.7-1.3-21.5-3.7-32a183 183 0 0 0 24.4 5.4zm157.2 250c-51.2 1-97 28.7-97.8 55.3-.7 19 19.6 31.4 50.2 28.1 13.1-1.4 24.2-6 26.3-9 1.6-2 2.2-4.6 1.9-7.1 55-3.6 107.2 38 138.6 24.8 13.6-5.6 22.3-25.6 15.5-36-31.5-41.8-84.6-54.2-134.7-56.1zm-169.7 107.4c-6 10.2-8.8 36.1-11.7 75.5-12.8 29-18.6 57.5-23.9 95.1-21.2-74.2-36-145-32.7-222.9a239 239 0 0 0 68.3 52.3zm44 20.3c-5.4 2-10.5 4.7-15.3 8 .6-4.5.8-9 1.3-13.5 7 3 11.3 4.5 14 5.5zm90.7 444.8c-.1 81.5-17.6 157.4-36.8 236a370 370 0 0 0-28.6-11.4c-34.1-107.2-7.1-219.8 7.6-327.8 9.2-64.5 2.9-129.6-8.5-193.3 21 25.9 70.3 131 66.3 296.5zm99.8-244.9c50.7 1.8 124.5 55.3 134.9 63.7-69.4-44.1-134.7-43.8-213.9-47.2-1.2-3.6-2.8-7-4.5-10.4 44.3 7 60.4-6 83.5-6zm1388.4 286.2c18.7 190.5 56.9 261 77 291.4 77.7 121.2 31.6 273.9-15.4 373.5-46.4 98-310 535.2-709.7 608.6-299.2 60.4-374.3-205-415.3-444.7 128.4-18 202-116 294.5-157.7 315.8-138.2 539.3-478.3 585-647 23.6-88.4 18.8-131.3-1.7-277.7 59.6 39.2 132.9 16.7 184.6-9.6-10.8 103-4.3 207.8 1 263.2zm-1596 166.3-7.8-3c-33.3-78.5-34.2-122.6-6.2-248.6a1279.3 1279.3 0 0 0 29.4-164.2c9.8 138.1-51.3 262.2-15.5 415.8zm536.5-240.9c-7.5-8.3-15.9-15-18.4-17.7-3.1-11.8-12-42.9-39-55.4a1158.1 1158.1 0 0 0-96-91.5c59 37.6 119.4 84.2 153.4 164.6zm-293.3-137.7c-53 6.3-77.9 6.8-101 6.3-1.3-5.4-2.4-10.8-3.5-16.2 35.2-1 70.5.3 104.5 9.9zm135 69.7c-76.4 22-137.4 62.9-191.9 104.2 19-41.2 48.2-79 37.7-126.4 66.7-9.1 80.6-12.7 92.2-17.3a474.3 474.3 0 0 1 62 39.5zm-223.1 74.3c-1-31.9-4-63.7-6.2-95.5l31.8-.4c6 7.2-.3 47.4-25.6 96zm304.5-33.8c14.2 8.8 7.3 52.6 3.4 72.3-16 76.6-88.6 184.4-151.4 228.7-106.6-4.3-176.4 21.8-192 28.4a96.6 96.6 0 0 0-8.6-9.4 719.2 719.2 0 0 0 37.4-153.3c54.8-66.8 137-120.8 217.3-153.3 17.6-7 70-26 93.9-13.4zm-57.6 313a366 366 0 0 1-24.6-3.4 494.4 494.4 0 0 0 130.3-215.2c-19.5 81-50.7 155.3-105.7 218.6zm204.1 59.4a1324.9 1324.9 0 0 0-94.7-31.8c30.8-71.6 52.3-163.8 49.4-242.9.6 2 71.5 191.2 45.3 274.7zm-674.2-126.1c-12-3.3-23.6-7-35.3-11a196.7 196.7 0 0 1-16.3-63c0-30.7 22.2-40.6 38.7-43.7 0 47.6 1.5 80.7 13 117.7zM900.4 2288c-.5 15.8 11.7 15.6 19.6 15 16.5-11.9 14-18.9 39.3-44.5 121 15.6 251.2 2.2 366.4 47.7-19.4 11.3-28.7 37.5-27.9 56.8 1.2 27.6 21.3 46.6 32.4 55 24.7 19.3 75.6 38.7 112 13.5a146 146 0 0 0 33.4-34.6c-.7 24.7-22 41.7-32.1 49.6-68.6 52.6-219 11.3-219.7 11-49.1-26.8-289.4-145.4-378.2-148 4.1-4.6 9-8.7 11.8-14.3 5.7-9.4 8-21.8 17-29 8.3-6.5 21.7-9.8 41.3-10.5a71.2 71.2 0 0 0-15.3 32.3zm956.9 50.6c-6.6-2-13.2-3.9-20-5.3a311.2 311.2 0 0 0 48.3-74.2c-6.2 23.4-18.4 61.2-28.3 79.5zm-1014-29.2c-54.6-2.6-102.7 23-150.2 46.4a15444 15444 0 0 1-259.9 123.4c32.4-55 104-66.2 160.2-86.1 92.5-33.2 185.6-85.9 235.6-107.7-5.7 14.6 4 14.5 14.3 24zm537.3 25.5a197 197 0 0 1 74.6 23c-1.9 3.5-23.3 39.5-45.5 46-16.5 5.9-62.4-16.4-69.2-31.6-13.7-34 14.8-38.5 40.1-37.4zm651 126c-256.3-66.8-311 31.8-510.3-40.3a124 124 0 0 0 2.6-40.5c149.3-18.5 389.6-46.2 507.7 80.9zm1186 5.7c14.3 93.2 18.4 220-107.3 456.9-95 179.5-340.1 488.9-689 587.3-251.2 71.2-465.1-37.9-541.5-289.2-27.5-90.5-34.7-175.7-26-276.2 4.8-1.2 10.6-.8 15.7-1 46.7 302.7 120.4 389.2 170.5 429.2 120.7 97.6 279.3 69.4 374.9 38.8 321.3-103.1 529.7-386.4 597.1-490.2 78.7-123.8 150.6-266.2 130.3-416.8-15.8-100-36.4-121.8-36.7-124.8 35.3 31.3 69.8 64 112 86zm-1506 18.7c95.8-12 180-14 275.7 3.6-118.8 8.8-236.8 40-356.2 41a344.1 344.1 0 0 1-155.3-46.7c10.9-8.6 21.1-18 29.6-28.9 75.5 29.6 145.8 32.3 206.2 31zm-234.9 55.9c56.8 74.2 89.7 187 91.9 255.2.6 25.2-2.4 75.2-31.2 111.8-18.5-100.7-67.7-191.6-104.5-286.3-1.4-2.6 21.9-59.8-15.2-109.7a539 539 0 0 1 8.2-2.6c14 13 34.4 12.2 50.8 31.6zm-143.4-20.5c-5.7 5.6-11.6 11-17.4 16.6l-7.7-8.5c2.5-2.9 5-5.7 7.4-8.7l17.7.6zm45.3 17c20.3 23 14 55.2 7 75.3a1983.7 1983.7 0 0 0-41-42.4c9.2-12.9 22-22.6 33.2-33.7l.8.9zm514.7 34c-4.5-8-9.3-16-14.7-23.5 13.2-1.7 26.5-3 39.8-4.4-.9 1.3-11.2 17-25 28zm-23.5 70.8c-185.2-49.9-198.6-9.6-307-74.3 87.2 21 171.6 1.3 257.8-11.5 12.6 9.9 38 30.8 49.2 85.8zm-1018-23.8c48.6 25.2 86 37.8 129.5 52.1-7.5 9.3-14.5 19-21.9 28.5-43.7-36.9-74.9-63-116.2-74.9a133 133 0 0 0 8.5-5.7zm520 58.4c2.3 5-4 27.4-20.2 43.3-34 28.6-76.7-26.9-80.8-54.3-4.3-23.7 10.4-45.7 17.1-45.4 14.5-1 73.3 33 83.8 56.4zm-275.5 46a611.5 611.5 0 0 0-36 58.2c-22.4-16-41.5-35.5-64-53.5 10.6-14.5 22-28.5 33.1-42.6a128.7 128.7 0 0 1 66.9 38zm332.4 15.4-10.8 4.9c2-6.2 3.5-12.6 4.6-19l6.2 14.1zm-294.6 14.1c2.7 2.1 5.4 4.3 8.2 6.3-11.8 19.8-23.2 39.7-35.4 59.2-2.4-2.4-4.6-5-6.6-7.7 10.2-19.9 21-39.4 33.8-57.8zm86.5 48.8c-20.5 26.3-45.8 47.8-66.1 77.2-5.2-7.7-10-15.6-15.5-23a2680 2680 0 0 1 45-72.8c16 9.2 26.6 14.4 36.6 18.6zm67.2 18.7c-12.4 7.6-27.8 16.5-45.7 26.7l24.6-29.2c4.9.8 13 2 21.1 2.5zm-356.9 213c-5.5 13.8-11 27.7-17.1 41.4-49.5-28-103-77.8-146.2-92.4-34.8-11.3-71.7-13.2-107.6-19v-5c41.6-3.7 84-5.2 124.2-18 44.1 38 96.4 64.3 146.7 93zm271.2 55.8c1.8 18.5-10.4 35.5-21.2 39.7-19.6 7.8-41.7-45.3-30-82.1 6.2-18.4 16.6-25.8 17.9-26.4 12.6 14.5 32.3 56.3 33.3 68.8zm-227.1-8.1c-2.5 7.7-5.6 15.2-8.5 22.8a291 291 0 0 1-11.5-7.3c3.5-9.1 7.2-18.2 11-27.3 1.9 2.3 5.2 6.5 9 11.8zM3591.6 4096h54.2c30.3-365.1 228.7-743.5 450.2-949.3v-73.2c-446.5 384.1-519.2 1022.2-504.4 1022.5zm-2569-959.2-4.4 11.8a568 568 0 0 0-12.6-14.5l4.7-12.3c2.6 3 7 8.2 12.4 15zm42.4 147.6c10.1 23.9-4.5 42-8.7 42.2-13.5 1.8-35.7-24.7-31.7-38.4 3.7-11 3.4-25.3 10.7-34.7 6.5 3.6 23.5 16 29.7 30.9zm-180 70.4c-32 112.3-59.4 291.7-68 387.8a282.4 282.4 0 0 1-19.7-26c21.4-124 42.5-248.4 74.5-370.2l13.2 8.4zm2684.6 52.9c-134 304-102.1 682.4-99.4 688.3h45.8c-6.4-80.4-21-394.4 106.3-716.4 10.3-28.3-7.5-78-52.7 28zm43.7 156.8c-63.4 162.4-82.3 531-77 531.5l46-.2c6.1-261.6 62-490.3 64-534.6.2-17.3-19.6-31.8-33 3.3z"></path></svg></svg></g></g><defs><clipPath id="SvgjsClipPath1174"><rect width="1000" height="1000" x="0" y="0" rx="50" ry="50"></rect></clipPath></defs></svg>